<svg width="209" height="38" viewBox="0 0 209 38" fill="none" xmlns="http://www.w3.org/2000/svg">
<rect width="209" height="38" rx="19" fill="white" fill-opacity="0.1"/>
<rect x="0.5" y="0.5" width="208" height="37" rx="18.5" stroke="white" stroke-opacity="0.19"/>
<rect x="7" y="7" width="24" height="24" rx="12" fill="white"/>
<path d="M28.8055 17.0415H28V17H19V21H24.6515C23.827 23.3285 21.6115 25 19 25C15.6865 25 13 22.3135 13 19C13 15.6865 15.6865 13 19 13C20.5295 13 21.921 13.577 22.9805 14.5195L25.809 11.691C24.023 10.0265 21.634 9 19 9C13.4775 9 9 13.4775 9 19C9 24.5225 13.4775 29 19 29C24.5225 29 29 24.5225 29 19C29 18.3295 28.931 17.675 28.8055 17.0415Z" fill="#FFC107"/>
<path d="M10.1523 14.3455L13.4378 16.755C14.3268 14.554 16.4798 13 18.9993 13C20.5288 13 21.9203 13.577 22.9798 14.5195L25.8083 11.691C24.0223 10.0265 21.6333 9 18.9993 9C15.1583 9 11.8273 11.1685 10.1523 14.3455Z" fill="#FF3D00"/>
<path d="M19.0002 29.0003C21.5832 29.0003 23.9302 28.0118 25.7047 26.4043L22.6097 23.7853C21.5721 24.5749 20.3039 25.0017 19.0002 25.0003C16.3992 25.0003 14.1907 23.3418 13.3587 21.0273L10.0977 23.5398C11.7527 26.7783 15.1137 29.0003 19.0002 29.0003Z" fill="#4CAF50"/>
<path d="M28.8055 17.0415H28V17H19V21H24.6515C24.2571 22.1082 23.5467 23.0766 22.608 23.7855L22.6095 23.7845L25.7045 26.4035C25.4855 26.6025 29 24 29 19C29 18.3295 28.931 17.675 28.8055 17.0415Z" fill="#1976D2"/>
<path d="M52.4128 10L54.6349 16.8388H61.8256L56.0082 21.0654L58.2303 27.9042L52.4128 23.6776L46.5954 27.9042L48.8174 21.0654L43 16.8388H50.1907L52.4128 10Z" fill="white"/>
<path d="M75.237 10L77.4591 16.8388H84.6498L78.8324 21.0654L81.0545 27.9042L75.237 23.6776L69.4196 27.9042L71.6417 21.0654L65.8242 16.8388H73.015L75.237 10Z" fill="white"/>
<path d="M98.0632 10L100.285 16.8388H107.476L101.659 21.0654L103.881 27.9042L98.0632 23.6776L92.2458 27.9042L94.4678 21.0654L88.6504 16.8388H95.8411L98.0632 10Z" fill="white"/>
<path d="M120.889 10L123.111 16.8388H130.302L124.485 21.0654L126.707 27.9042L120.889 23.6776L115.072 27.9042L117.294 21.0654L111.477 16.8388H118.667L120.889 10Z" fill="white"/>
<path d="M143.716 10L145.938 16.8388H153.128L147.311 21.0654L149.533 27.9042L143.716 23.6776L137.898 27.9042L140.12 21.0654L134.303 16.8388H141.493L143.716 10Z" fill="url(#paint0_linear_154_3027)"/>
<path d="M166.88 26.76C165.419 24.5093 164.688 22.216 164.688 19.88C164.688 17.544 165.419 15.2507 166.88 13H168.688C167.376 15.2933 166.72 17.5867 166.72 19.88C166.72 21.0213 166.885 22.168 167.216 23.32C167.547 24.4613 168.037 25.608 168.688 26.76H166.88Z" fill="white"/>
<path d="M174.198 25V22.728H168.502V21.032L173.862 13.64H176.278V20.92H177.638V22.728H176.278V25H174.198ZM170.774 20.92H174.198V16.344L170.774 20.92Z" fill="white"/>
<path d="M178.671 25V22.76H181.007V25H178.671Z" fill="white"/>
<path d="M186.537 25.256C185.652 25.256 184.9 25.1173 184.281 24.84C183.663 24.5627 183.183 24.1787 182.841 23.688C182.5 23.1867 182.297 22.6053 182.233 21.944L184.361 21.832C184.447 22.3653 184.681 22.7653 185.065 23.032C185.449 23.2987 185.94 23.432 186.537 23.432C187.231 23.432 187.769 23.2453 188.153 22.872C188.548 22.488 188.745 21.9493 188.745 21.256C188.745 20.8187 188.655 20.4347 188.473 20.104C188.303 19.7733 188.052 19.5173 187.721 19.336C187.391 19.1547 186.991 19.064 186.521 19.064C186.041 19.064 185.62 19.1707 185.257 19.384C184.905 19.5867 184.649 19.8587 184.489 20.2H182.377L183.161 13.64H190.121V15.448H184.969L184.521 19.064L184.249 18.824C184.42 18.5253 184.644 18.2747 184.921 18.072C185.199 17.8587 185.519 17.6987 185.881 17.592C186.255 17.4853 186.655 17.432 187.081 17.432C187.849 17.432 188.516 17.5973 189.081 17.928C189.657 18.2587 190.1 18.712 190.409 19.288C190.729 19.864 190.889 20.52 190.889 21.256C190.889 22.056 190.708 22.76 190.345 23.368C189.993 23.9653 189.487 24.4293 188.825 24.76C188.175 25.0907 187.412 25.256 186.537 25.256Z" fill="white"/>
<path d="M193.346 26.76H191.522C192.172 25.608 192.663 24.4613 192.994 23.32C193.324 22.168 193.49 21.0213 193.49 19.88C193.49 17.5867 192.834 15.2933 191.522 13H193.346C194.796 15.2507 195.522 17.544 195.522 19.88C195.522 22.216 194.796 24.5093 193.346 26.76Z" fill="white"/>
<defs>
<linearGradient id="paint0_linear_154_3027" x1="153.128" y1="18.9521" x2="134.303" y2="18.9521" gradientUnits="userSpaceOnUse">
<stop offset="0.5" stop-color="white" stop-opacity="0.22"/>
<stop offset="0.5" stop-color="white"/>
</linearGradient>
</defs>
</svg>
